<?xml version="1.0" encoding="iso-8859-1"?>
<!-- Generator: Adobe Illustrator 19.0.0, SVG Export Plug-In . SVG Version: 6.00 Build 0)  -->
<svg version="1.1" id="Capa_1" xmlns="http://www.w3.org/2000/svg" xmlns:xlink="http://www.w3.org/1999/xlink" x="0px" y="0px"
	 viewBox="0 0 512 512" style="enable-background:new 0 0 512 512;" xml:space="preserve">
<path style="fill:#E0230D;" d="M419.284,0h-30.905v512h30.905C470.278,512,512,470.278,512,419.284V92.716
	C512,41.722,470.278,0,419.284,0z"/>
<path style="fill:#FF5440;" d="M481.095,92.716v326.567c0,50.994-41.722,92.716-92.716,92.716H92.716
	C41.722,512,0,470.278,0,419.284V92.716C0,41.722,41.722,0,92.716,0h295.662C439.372,0,481.095,41.722,481.095,92.716z"/>
<g>
	<path style="fill:#FFFFFF;" d="M115.895,370.35c-30.106,0-54.6-24.493-54.6-54.6c0-8.534,6.919-15.453,15.453-15.453
		s15.453,6.919,15.453,15.453c0,13.066,10.629,23.694,23.694,23.694s23.694-10.628,23.694-23.694v-20.604
		c0-13.066-10.629-23.694-23.694-23.694c-30.106,0-54.6-24.493-54.6-54.6v-20.604c0-30.107,24.494-54.6,54.6-54.6
		s54.6,24.493,54.6,54.6c0,8.534-6.919,15.453-15.453,15.453c-8.534,0-15.453-6.919-15.453-15.453
		c0-13.066-10.629-23.694-23.694-23.694s-23.694,10.628-23.694,23.694v20.604c0,13.066,10.629,23.694,23.694,23.694
		c30.106,0,54.6,24.493,54.6,54.6v20.604C170.495,345.858,146.001,370.35,115.895,370.35z"/>
	<path style="fill:#FFFFFF;" d="M396.105,370.35c-30.107,0-54.6-24.493-54.6-54.6c0-8.534,6.919-15.453,15.453-15.453
		s15.453,6.919,15.453,15.453c0,13.066,10.628,23.694,23.694,23.694s23.694-10.628,23.694-23.694v-20.604
		c0-13.066-10.628-23.694-23.694-23.694c-30.107,0-54.6-24.493-54.6-54.6v-20.604c0-30.107,24.493-54.6,54.6-54.6
		s54.6,24.493,54.6,54.6c0,8.534-6.919,15.453-15.453,15.453s-15.453-6.919-15.453-15.453c0-13.066-10.628-23.694-23.694-23.694
		s-23.694,10.628-23.694,23.694v20.604c0,13.066,10.628,23.694,23.694,23.694c30.107,0,54.6,24.493,54.6,54.6v20.604
		C450.704,345.858,426.212,370.35,396.105,370.35z"/>
	<path style="fill:#FFFFFF;" d="M256,370.35c-30.106,0-54.6-24.493-54.6-54.6V196.249c0-30.107,24.494-54.6,54.6-54.6
		c30.107,0,54.6,24.493,54.6,54.6V315.75C310.6,345.858,286.107,370.35,256,370.35z M256,172.555
		c-13.065,0-23.694,10.628-23.694,23.694V315.75c0,13.066,10.629,23.694,23.694,23.694c13.066,0,23.694-10.628,23.694-23.694
		V196.249C279.694,183.184,269.066,172.555,256,172.555z"/>
</g>
<g>
</g>
<g>
</g>
<g>
</g>
<g>
</g>
<g>
</g>
<g>
</g>
<g>
</g>
<g>
</g>
<g>
</g>
<g>
</g>
<g>
</g>
<g>
</g>
<g>
</g>
<g>
</g>
<g>
</g>
</svg>
